<svg width="98" height="23" viewBox="0 0 98 23" fill="none" xmlns="http://www.w3.org/2000/svg">
<path fill-rule="evenodd" clip-rule="evenodd" d="M14.693 0.818115C14.6801 0.818115 14.6685 0.826369 14.6649 0.838914L14.4605 1.48862C14.443 1.54474 14.3988 1.58898 14.3427 1.60648L13.693 1.81084C13.6652 1.81942 13.6652 1.85871 13.693 1.86729L14.3427 2.07164C14.3988 2.08947 14.443 2.13338 14.4605 2.18983L14.6649 2.83954C14.6804 2.88906 14.7058 2.88906 14.7213 2.83954C14.7894 2.62297 14.8574 2.4064 14.9257 2.18983C14.9412 2.14031 14.994 2.08716 15.0439 2.07164L15.6936 1.86729C15.7213 1.85871 15.7213 1.81942 15.6936 1.81084L15.0439 1.60648C14.9874 1.58898 14.9435 1.54474 14.9257 1.48862L14.7213 0.838914C14.7174 0.826369 14.7058 0.818115 14.693 0.818115ZM10.6897 1.99439C10.6726 1.99439 10.6577 2.00562 10.6524 2.02179L10.383 2.87849C10.3596 2.95278 10.3015 3.01088 10.2272 3.03432L9.3705 3.30371C9.33418 3.31526 9.33418 3.36677 9.3705 3.37799L10.2272 3.64738C10.3015 3.67082 10.3596 3.7286 10.383 3.80288L10.6524 4.65958C10.6729 4.72495 10.7062 4.72495 10.727 4.65958C10.8168 4.37401 10.9066 4.08844 10.9964 3.80288C11.0169 3.73751 11.0865 3.66785 11.1519 3.64738L12.0086 3.37799C12.0453 3.36677 12.0453 3.31493 12.0086 3.30371L11.1519 3.03432C11.0776 3.01088 11.0195 2.95278 10.9964 2.87849L10.727 2.02179C10.7217 2.00562 10.7069 1.99439 10.6897 1.99439ZM12.9237 3.66653C12.8914 3.66653 12.8627 3.68766 12.8531 3.71836L12.3421 5.34395C12.2978 5.48492 12.1876 5.59519 12.0466 5.63943L10.4213 6.15048C10.352 6.17226 10.352 6.26999 10.4213 6.29211L12.0466 6.80316C12.1876 6.84739 12.2978 6.95766 12.3421 7.0983L12.8531 8.72389C12.8921 8.84802 12.9554 8.84802 12.9944 8.72389C13.1648 8.18213 13.3351 7.64038 13.5055 7.0983C13.5444 6.97416 13.6768 6.84178 13.8009 6.80316L15.4265 6.29211C15.4958 6.27032 15.4958 6.17259 15.4265 6.15048L13.8009 5.63943C13.6603 5.59519 13.5497 5.48492 13.5055 5.34395L12.9944 3.71836C12.9848 3.68766 12.9561 3.66653 12.9237 3.66653Z" fill="url(#paint0_linear_56_2527)"/>
<path d="M18.464 18C18.32 18 18.2 17.949 18.104 17.847L16.3039 16.0469C16.2019 15.9509 16.1509 15.8309 16.1509 15.6869V8.3065C16.1509 8.16849 16.2019 8.04849 16.3039 7.94648L18.104 6.14639C18.2 6.05038 18.32 6.00238 18.464 6.00238H23.7833C23.9333 6.00238 24.0083 6.07738 24.0083 6.22739V8.17149C24.0083 8.3215 23.9333 8.3965 23.7833 8.3965H19.454C19.37 8.3965 19.298 8.42651 19.238 8.48651C19.178 8.54651 19.148 8.61852 19.148 8.70252V15.2819C19.148 15.3659 19.178 15.4379 19.238 15.4979C19.298 15.5579 19.37 15.5879 19.454 15.5879H21.3981V13.1848H20.2461C20.0961 13.1848 20.0211 13.1097 20.0211 12.9597V11.0246C20.0211 10.8746 20.0961 10.7996 20.2461 10.7996H23.9363C24.0863 10.7996 24.1613 10.8746 24.1613 11.0246V15.6869C24.1613 15.8309 24.1103 15.9509 24.0083 16.0469L22.2082 17.847C22.1122 17.949 21.9922 18 21.8482 18H18.464ZM26.2729 18C26.1229 18 26.0479 17.925 26.0479 17.775V6.22739C26.0479 6.07738 26.1229 6.00238 26.2729 6.00238H32.5462C32.6962 6.00238 32.7712 6.07738 32.7712 6.22739V8.17149C32.7712 8.3215 32.6962 8.3965 32.5462 8.3965H29.045V10.9526H32.2402C32.3902 10.9526 32.4652 11.0276 32.4652 11.1776V12.8247C32.4652 12.9747 32.3902 13.0497 32.2402 13.0497H29.045V15.5969H32.5462C32.6962 15.5969 32.7712 15.6719 32.7712 15.8219V17.775C32.7712 17.925 32.6962 18 32.5462 18H26.2729ZM35.1503 18C35.0003 18 34.9253 17.925 34.9253 17.775V6.22739C34.9253 6.07738 35.0003 6.00238 35.1503 6.00238H40.2625C40.4065 6.00238 40.5266 6.05038 40.6226 6.14639L42.4227 7.94648C42.5247 8.04849 42.5757 8.16849 42.5757 8.3065V17.775C42.5757 17.925 42.5007 18 42.3506 18H39.8035C39.6535 18 39.5785 17.925 39.5785 17.775V8.3965H37.9224V17.775C37.9224 17.925 37.8474 18 37.6974 18H35.1503ZM47.0475 18C46.9035 18 46.7835 17.949 46.6875 17.847L44.8874 16.0469C44.7854 15.9509 44.7344 15.8309 44.7344 15.6869V6.22739C44.7344 6.07738 44.8094 6.00238 44.9594 6.00238H47.5065C47.6565 6.00238 47.7315 6.07738 47.7315 6.22739V15.5879H49.7476V6.22739C49.7476 6.07738 49.8226 6.00238 49.9726 6.00238H52.5198C52.6698 6.00238 52.7448 6.07738 52.7448 6.22739V15.5879H54.7519V6.22739C54.7519 6.07738 54.8269 6.00238 54.9769 6.00238H57.533C57.683 6.00238 57.758 6.07738 57.758 6.22739V15.6869C57.758 15.8309 57.707 15.9509 57.605 16.0469L55.8049 17.847C55.7029 17.949 55.5829 18 55.4449 18H53.3298C53.1918 18 53.0718 17.949 52.9698 17.847L51.4577 16.3349H51.0347L49.5226 17.847C49.4206 17.949 49.3006 18 49.1626 18H47.0475ZM60.0847 18C59.9346 18 59.8596 17.925 59.8596 17.775V9.43156C59.8596 9.35355 59.8896 9.26355 59.9496 9.16154L62.0828 6.13739C62.1488 6.04738 62.2448 6.00238 62.3708 6.00238H65.3499C65.4819 6.00238 65.5779 6.04738 65.6379 6.13739L67.7801 9.16154C67.8401 9.24555 67.8701 9.33555 67.8701 9.43156V17.775C67.8701 17.925 67.7951 18 67.645 18H65.0979C64.9479 18 64.8729 17.925 64.8729 17.775V13.9498H62.8658V17.775C62.8658 17.925 62.7908 18 62.6408 18H60.0847ZM63.8648 12.0147C64.4169 12.0147 64.7889 11.8947 64.9809 11.6547C65.1789 11.4087 65.2779 10.9436 65.2779 10.2596C65.2779 9.57557 65.1789 9.11354 64.9809 8.87353C64.7889 8.62752 64.4169 8.50451 63.8648 8.50451C63.3188 8.50451 62.9468 8.62752 62.7488 8.87353C62.5568 9.11354 62.4608 9.57557 62.4608 10.2596C62.4608 10.9436 62.5568 11.4087 62.7488 11.6547C62.9468 11.8947 63.3188 12.0147 63.8648 12.0147ZM70.2029 18C70.0529 18 69.9779 17.925 69.9779 17.775V6.22739C69.9779 6.07738 70.0529 6.00238 70.2029 6.00238H72.75C72.9 6.00238 72.975 6.07738 72.975 6.22739V15.5969H75.2431C75.3931 15.5969 75.4681 15.6719 75.4681 15.8219V17.775C75.4681 17.925 75.3931 18 75.2431 18H70.2029ZM77.129 18C76.979 18 76.904 17.925 76.904 17.775V6.22739C76.904 6.07738 76.979 6.00238 77.129 6.00238H79.6761C79.8261 6.00238 79.9011 6.07738 79.9011 6.22739V15.5969H82.1693C82.3193 15.5969 82.3943 15.6719 82.3943 15.8219V17.775C82.3943 17.925 82.3193 18 82.1693 18H77.129ZM83.7851 18C83.6351 18 83.5601 17.925 83.5601 17.775V16.0829C83.5601 16.0049 83.5631 15.9419 83.5691 15.8939C83.5811 15.8459 83.6171 15.8069 83.6771 15.7769L86.0352 14.6968V13.0947L83.7131 11.6547C83.6111 11.5947 83.5601 11.5047 83.5601 11.3847V8.08149C83.5601 7.98548 83.5661 7.91648 83.5781 7.87448C83.5901 7.82647 83.6351 7.77547 83.7131 7.72147L86.0802 6.11939C86.1403 6.08338 86.1943 6.05638 86.2423 6.03838C86.2963 6.01438 86.3623 6.00238 86.4403 6.00238H88.8704C89.0204 6.00238 89.0954 6.07738 89.0954 6.22739V7.75747C89.0954 7.88948 89.0504 7.97948 88.9604 8.02749L86.6023 8.99954V10.6646L88.9604 12.0147C89.0504 12.0567 89.0954 12.1527 89.0954 12.3027V16.2179C89.0954 16.2659 89.0864 16.3169 89.0684 16.3709C89.0564 16.4249 89.0264 16.4639 88.9784 16.4879L86.1523 17.892C86.1163 17.91 86.0712 17.934 86.0172 17.964C85.9692 17.988 85.9212 18 85.8732 18H83.7851Z" fill="url(#paint1_linear_56_2527)"/>
<defs>
<linearGradient id="paint0_linear_56_2527" x1="9.34326" y1="4.81755" x2="15.7144" y2="4.81755" gradientUnits="userSpaceOnUse">
<stop stop-color="#BA8B02"/>
<stop offset="1" stop-color="#BA8B02" stop-opacity="0.6"/>
</linearGradient>
<linearGradient id="paint1_linear_56_2527" x1="15.0708" y1="11.5" x2="90.0708" y2="11.5" gradientUnits="userSpaceOnUse">
<stop stop-color="#BA8B02"/>
<stop offset="1" stop-color="#BA8B02" stop-opacity="0.6"/>
</linearGradient>
</defs>
</svg>
