<svg width="98" height="23" viewBox="0 0 98 23" fill="none" xmlns="http://www.w3.org/2000/svg">
<path fill-rule="evenodd" clip-rule="evenodd" d="M14.693 0.818115C14.6801 0.818115 14.6685 0.826369 14.6649 0.838914L14.4605 1.48862C14.443 1.54474 14.3988 1.58898 14.3427 1.60648L13.693 1.81084C13.6652 1.81942 13.6652 1.85871 13.693 1.86729L14.3427 2.07164C14.3988 2.08947 14.443 2.13338 14.4605 2.18983L14.6649 2.83954C14.6804 2.88906 14.7058 2.88906 14.7213 2.83954C14.7894 2.62297 14.8574 2.4064 14.9257 2.18983C14.9412 2.14031 14.994 2.08716 15.0439 2.07164L15.6936 1.86729C15.7213 1.85871 15.7213 1.81942 15.6936 1.81084L15.0439 1.60648C14.9874 1.58898 14.9435 1.54474 14.9257 1.48862L14.7213 0.838914C14.7174 0.826369 14.7058 0.818115 14.693 0.818115ZM10.6897 1.99439C10.6726 1.99439 10.6577 2.00562 10.6524 2.02179L10.383 2.87849C10.3596 2.95278 10.3015 3.01088 10.2272 3.03432L9.3705 3.30371C9.33418 3.31526 9.33418 3.36677 9.3705 3.37799L10.2272 3.64738C10.3015 3.67082 10.3596 3.7286 10.383 3.80288L10.6524 4.65958C10.6729 4.72495 10.7062 4.72495 10.727 4.65958C10.8168 4.37401 10.9066 4.08844 10.9964 3.80288C11.0169 3.73751 11.0865 3.66785 11.1519 3.64738L12.0086 3.37799C12.0453 3.36677 12.0453 3.31493 12.0086 3.30371L11.1519 3.03432C11.0776 3.01088 11.0195 2.95278 10.9964 2.87849L10.727 2.02179C10.7217 2.00562 10.7069 1.99439 10.6897 1.99439ZM12.9237 3.66653C12.8914 3.66653 12.8627 3.68766 12.8531 3.71836L12.3421 5.34395C12.2978 5.48492 12.1876 5.59519 12.0466 5.63943L10.4213 6.15048C10.352 6.17226 10.352 6.26999 10.4213 6.29211L12.0466 6.80316C12.1876 6.84739 12.2978 6.95766 12.3421 7.0983L12.8531 8.72389C12.8921 8.84802 12.9554 8.84802 12.9944 8.72389C13.1648 8.18213 13.3351 7.64038 13.5055 7.0983C13.5444 6.97416 13.6768 6.84178 13.8009 6.80316L15.4265 6.29211C15.4958 6.27032 15.4958 6.17259 15.4265 6.15048L13.8009 5.63943C13.6603 5.59519 13.5497 5.48492 13.5055 5.34395L12.9944 3.71836C12.9848 3.68766 12.9561 3.66653 12.9237 3.66653Z" fill="url(#paint0_linear_56_2552)"/>
<path d="M18.4645 18C18.3205 18 18.2005 17.949 18.1044 17.847L16.3044 16.0469C16.2023 15.9509 16.1513 15.8309 16.1513 15.6869V8.3065C16.1513 8.16849 16.2023 8.04849 16.3044 7.94648L18.1044 6.14639C18.2005 6.05038 18.3205 6.00238 18.4645 6.00238H23.7837C23.9337 6.00238 24.0088 6.07738 24.0088 6.22739V8.17149C24.0088 8.3215 23.9337 8.3965 23.7837 8.3965H19.4545C19.3705 8.3965 19.2985 8.42651 19.2385 8.48651C19.1785 8.54651 19.1485 8.61852 19.1485 8.70252V15.2819C19.1485 15.3659 19.1785 15.4379 19.2385 15.4979C19.2985 15.5579 19.3705 15.5879 19.4545 15.5879H21.3986V13.1848H20.2466C20.0965 13.1848 20.0215 13.1097 20.0215 12.9597V11.0246C20.0215 10.8746 20.0965 10.7996 20.2466 10.7996H23.9367C24.0868 10.7996 24.1618 10.8746 24.1618 11.0246V15.6869C24.1618 15.8309 24.1108 15.9509 24.0088 16.0469L22.2087 17.847C22.1127 17.949 21.9926 18 21.8486 18H18.4645ZM26.2734 18C26.1233 18 26.0483 17.925 26.0483 17.775V6.22739C26.0483 6.07738 26.1233 6.00238 26.2734 6.00238H32.5467C32.6967 6.00238 32.7717 6.07738 32.7717 6.22739V8.17149C32.7717 8.3215 32.6967 8.3965 32.5467 8.3965H29.0455V10.9526H32.2407C32.3907 10.9526 32.4657 11.0276 32.4657 11.1776V12.8247C32.4657 12.9747 32.3907 13.0497 32.2407 13.0497H29.0455V15.5969H32.5467C32.6967 15.5969 32.7717 15.6719 32.7717 15.8219V17.775C32.7717 17.925 32.6967 18 32.5467 18H26.2734ZM35.1508 18C35.0008 18 34.9258 17.925 34.9258 17.775V6.22739C34.9258 6.07738 35.0008 6.00238 35.1508 6.00238H40.263C40.407 6.00238 40.527 6.05038 40.623 6.14639L42.4231 7.94648C42.5251 8.04849 42.5761 8.16849 42.5761 8.3065V17.775C42.5761 17.925 42.5011 18 42.3511 18H39.804C39.654 18 39.579 17.925 39.579 17.775V8.3965H37.9229V17.775C37.9229 17.925 37.8479 18 37.6979 18H35.1508ZM47.048 18C46.904 18 46.784 17.949 46.688 17.847L44.8879 16.0469C44.7859 15.9509 44.7349 15.8309 44.7349 15.6869V6.22739C44.7349 6.07738 44.8099 6.00238 44.9599 6.00238H47.507C47.657 6.00238 47.732 6.07738 47.732 6.22739V15.5879H49.7481V6.22739C49.7481 6.07738 49.8231 6.00238 49.9731 6.00238H52.5203C52.6703 6.00238 52.7453 6.07738 52.7453 6.22739V15.5879H54.7524V6.22739C54.7524 6.07738 54.8274 6.00238 54.9774 6.00238H57.5335C57.6835 6.00238 57.7585 6.07738 57.7585 6.22739V15.6869C57.7585 15.8309 57.7075 15.9509 57.6055 16.0469L55.8054 17.847C55.7034 17.949 55.5834 18 55.4454 18H53.3303C53.1923 18 53.0723 17.949 52.9703 17.847L51.4582 16.3349H51.0352L49.5231 17.847C49.4211 17.949 49.3011 18 49.1631 18H47.048ZM60.0851 18C59.9351 18 59.8601 17.925 59.8601 17.775V9.43156C59.8601 9.35355 59.8901 9.26355 59.9501 9.16154L62.0832 6.13739C62.1492 6.04738 62.2453 6.00238 62.3713 6.00238H65.3504C65.4824 6.00238 65.5784 6.04738 65.6384 6.13739L67.7805 9.16154C67.8405 9.24555 67.8705 9.33555 67.8705 9.43156V17.775C67.8705 17.925 67.7955 18 67.6455 18H65.0984C64.9484 18 64.8734 17.925 64.8734 17.775V13.9498H62.8663V17.775C62.8663 17.925 62.7913 18 62.6413 18H60.0851ZM63.8653 12.0147C64.4174 12.0147 64.7894 11.8947 64.9814 11.6547C65.1794 11.4087 65.2784 10.9436 65.2784 10.2596C65.2784 9.57557 65.1794 9.11354 64.9814 8.87353C64.7894 8.62752 64.4174 8.50451 63.8653 8.50451C63.3193 8.50451 62.9473 8.62752 62.7493 8.87353C62.5573 9.11354 62.4613 9.57557 62.4613 10.2596C62.4613 10.9436 62.5573 11.4087 62.7493 11.6547C62.9473 11.8947 63.3193 12.0147 63.8653 12.0147ZM70.2034 18C70.0533 18 69.9783 17.925 69.9783 17.775V6.22739C69.9783 6.07738 70.0533 6.00238 70.2034 6.00238H72.7505C72.9005 6.00238 72.9755 6.07738 72.9755 6.22739V15.5969H75.2436C75.3936 15.5969 75.4686 15.6719 75.4686 15.8219V17.775C75.4686 17.925 75.3936 18 75.2436 18H70.2034ZM77.1295 18C76.9795 18 76.9045 17.925 76.9045 17.775V6.22739C76.9045 6.07738 76.9795 6.00238 77.1295 6.00238H79.6766C79.8266 6.00238 79.9016 6.07738 79.9016 6.22739V15.5969H82.1698C82.3198 15.5969 82.3948 15.6719 82.3948 15.8219V17.775C82.3948 17.925 82.3198 18 82.1698 18H77.1295ZM83.7856 18C83.6356 18 83.5606 17.925 83.5606 17.775V16.0829C83.5606 16.0049 83.5636 15.9419 83.5696 15.8939C83.5816 15.8459 83.6176 15.8069 83.6776 15.7769L86.0357 14.6968V13.0947L83.7136 11.6547C83.6116 11.5947 83.5606 11.5047 83.5606 11.3847V8.08149C83.5606 7.98548 83.5666 7.91648 83.5786 7.87448C83.5906 7.82647 83.6356 7.77547 83.7136 7.72147L86.0807 6.11939C86.1407 6.08338 86.1947 6.05638 86.2427 6.03838C86.2967 6.01438 86.3628 6.00238 86.4408 6.00238H88.8709C89.0209 6.00238 89.0959 6.07738 89.0959 6.22739V7.75747C89.0959 7.88948 89.0509 7.97948 88.9609 8.02749L86.6028 8.99954V10.6646L88.9609 12.0147C89.0509 12.0567 89.0959 12.1527 89.0959 12.3027V16.2179C89.0959 16.2659 89.0869 16.3169 89.0689 16.3709C89.0569 16.4249 89.0269 16.4639 88.9789 16.4879L86.1527 17.892C86.1167 17.91 86.0717 17.934 86.0177 17.964C85.9697 17.988 85.9217 18 85.8737 18H83.7856Z" fill="url(#paint1_linear_56_2552)"/>
<defs>
<linearGradient id="paint0_linear_56_2552" x1="12.5288" y1="0.818115" x2="12.5288" y2="8.81698" gradientUnits="userSpaceOnUse">
<stop stop-color="#9F56FE"/>
<stop offset="1" stop-color="#D4B4FF"/>
</linearGradient>
<linearGradient id="paint1_linear_56_2552" x1="15.0713" y1="11.5" x2="90.0713" y2="11.5" gradientUnits="userSpaceOnUse">
<stop stop-color="#9F56FE"/>
<stop offset="1" stop-color="#D5B5FF"/>
</linearGradient>
</defs>
</svg>
