<svg width="258" height="55" viewBox="0 0 258 55" fill="none" xmlns="http://www.w3.org/2000/svg">
<path fill-rule="evenodd" clip-rule="evenodd" d="M17.0763 2C17.0449 2 17.0166 2.02017 17.0077 2.05084L16.5082 3.63893C16.4655 3.77611 16.3573 3.88425 16.2202 3.92702L14.6321 4.42652C14.5643 4.4475 14.5643 4.54353 14.6321 4.56451L16.2202 5.06402C16.3573 5.10759 16.4655 5.21492 16.5082 5.35291L17.0077 6.941C17.0457 7.06205 17.1078 7.06205 17.1458 6.941C17.312 6.41164 17.4782 5.88227 17.6453 5.35291C17.6832 5.23187 17.8123 5.10194 17.9341 5.06402L19.5222 4.56451C19.59 4.54353 19.59 4.4475 19.5222 4.42652L17.9341 3.92702C17.7961 3.88425 17.6888 3.77611 17.6453 3.63893L17.1458 2.05084C17.1361 2.02017 17.1078 2 17.0763 2ZM7.29117 4.87519C7.24921 4.87519 7.2129 4.90263 7.19999 4.94217L6.54151 7.03622C6.48421 7.21779 6.34219 7.35981 6.16063 7.41711L4.06657 8.07558C3.97781 8.10383 3.97781 8.22971 4.06657 8.25715L6.16063 8.91563C6.34219 8.97292 6.48421 9.11414 6.54151 9.2957L7.19999 11.3898C7.25002 11.5495 7.33152 11.5495 7.38236 11.3898C7.60185 10.6917 7.82135 9.99372 8.04084 9.2957C8.09087 9.13593 8.26114 8.96566 8.42092 8.91563L10.515 8.25715C10.6045 8.22971 10.6045 8.10302 10.515 8.07558L8.42092 7.41711C8.23935 7.35981 8.09733 7.21779 8.04084 7.03622L7.38236 4.94217C7.36945 4.90263 7.33314 4.87519 7.29117 4.87519ZM12.7519 8.96244C12.6728 8.96244 12.6026 9.01408 12.5792 9.08912L11.33 13.0626C11.2219 13.4072 10.9524 13.6767 10.6078 13.7848L6.63512 15.034C6.46566 15.0872 6.46566 15.3261 6.63512 15.3802L10.6078 16.6293C10.9524 16.7375 11.2219 17.007 11.33 17.3508L12.5792 21.3242C12.6744 21.6276 12.8293 21.6276 12.9246 21.3242C13.3409 20 13.7573 18.6758 14.1737 17.3508C14.2689 17.0473 14.5925 16.7238 14.8959 16.6293L18.8694 15.3802C19.0389 15.3269 19.0389 15.0881 18.8694 15.034L14.8959 13.7848C14.5522 13.6767 14.2819 13.4072 14.1737 13.0626L12.9246 9.08912C12.9012 9.01408 12.8309 8.96244 12.7519 8.96244Z" fill="url(#paint0_linear_56_884)"/>
<path d="M43.4752 44C43.1085 44 42.9252 43.8167 42.9252 43.45V15.224C42.9252 14.8573 43.1085 14.674 43.4752 14.674H49.7012C50.0678 14.674 50.2512 14.8573 50.2512 15.224V43.45C50.2512 43.8167 50.0678 44 49.7012 44H43.4752ZM56.065 44C55.6983 44 55.515 43.8167 55.515 43.45V20.35C55.515 19.9833 55.6983 19.8 56.065 19.8H66.075C66.4123 19.8 66.7057 19.9247 66.955 20.174L69.661 22.88H70.475L73.181 20.174C73.4303 19.9247 73.7237 19.8 74.061 19.8H78.835C79.1723 19.8 79.4657 19.9247 79.715 20.174L84.115 24.574C84.3643 24.8087 84.489 25.102 84.489 25.454V43.45C84.489 43.8167 84.3057 44 83.939 44H78.065C77.6983 44 77.515 43.8167 77.515 43.45V26.224C77.515 25.608 77.207 25.3 76.591 25.3H73.489V43.45C73.489 43.8167 73.3057 44 72.939 44H67.065C66.6983 44 66.515 43.8167 66.515 43.45V26.224C66.515 25.608 66.207 25.3 65.591 25.3H62.489V43.45C62.489 43.8167 62.3057 44 61.939 44H56.065ZM95.1322 44C94.7949 44 94.5015 43.8753 94.2522 43.626L89.8522 39.226C89.6029 38.9913 89.4782 38.698 89.4782 38.346V25.454C89.4782 25.102 89.6029 24.8087 89.8522 24.574L94.2522 20.174C94.5015 19.9247 94.7949 19.8 95.1322 19.8H106.902C107.269 19.8 107.452 19.9833 107.452 20.35V43.45C107.452 43.8167 107.269 44 106.902 44H102.326C102.136 44 101.989 43.9633 101.886 43.89C101.798 43.8167 101.696 43.7287 101.578 43.626L100.478 42.526L99.3782 43.626C99.1435 43.8753 98.8502 44 98.4982 44H95.1322ZM97.7062 38.874H99.2462C99.7155 38.874 100.038 38.7787 100.214 38.588C100.39 38.3973 100.478 38.06 100.478 37.576V24.926H97.7062C97.2222 24.926 96.8922 25.0213 96.7162 25.212C96.5402 25.4027 96.4522 25.74 96.4522 26.224V37.576C96.4522 38.06 96.5402 38.3973 96.7162 38.588C96.8922 38.7787 97.2222 38.874 97.7062 38.874ZM118.782 51.326C118.415 51.326 118.232 51.1427 118.232 50.776V47.344C118.232 47.0507 118.342 46.8893 118.562 46.86L121.774 46.046L124.062 44.836C124.282 44.7187 124.392 44.4913 124.392 44.154V40.546L122.324 42.46C122.074 42.7093 121.781 42.834 121.444 42.834L117.704 42.966C117.366 42.966 117.073 42.8487 116.824 42.614L112.798 38.566C112.548 38.3313 112.424 38.038 112.424 37.686V25.454C112.424 25.102 112.548 24.8087 112.798 24.574L117.198 20.174C117.447 19.9247 117.74 19.8 118.078 19.8H129.848C130.214 19.8 130.398 19.9833 130.398 20.35V46.794C130.398 47.19 130.273 47.4833 130.024 47.674L127.098 49.544L123.402 51.084C123.182 51.172 123.013 51.2307 122.896 51.26C122.793 51.304 122.617 51.326 122.367 51.326H118.782ZM120.652 38.214H122.192C122.661 38.214 122.984 38.1187 123.16 37.928C123.336 37.7373 123.424 37.4 123.424 36.916V24.926H120.652C120.168 24.926 119.838 25.0213 119.662 25.212C119.486 25.4027 119.398 25.74 119.398 26.224V36.916C119.398 37.4 119.486 37.7373 119.662 37.928C119.838 38.1187 120.168 38.214 120.652 38.214ZM136.073 44C135.706 44 135.523 43.8167 135.523 43.45V20.35C135.523 19.9833 135.706 19.8 136.073 19.8H141.925C142.291 19.8 142.475 19.9833 142.475 20.35V43.45C142.475 43.8167 142.291 44 141.925 44H136.073ZM135.963 17.974C135.669 17.974 135.523 17.8273 135.523 17.534V14.74C135.523 14.4467 135.669 14.3 135.963 14.3H142.079C142.343 14.3 142.475 14.4467 142.475 14.74V17.534C142.475 17.8273 142.343 17.974 142.079 17.974H135.963ZM148.741 44C148.374 44 148.191 43.8167 148.191 43.45V20.306C148.191 19.9687 148.308 19.6753 148.543 19.426L152.943 15.026C153.192 14.7913 153.486 14.674 153.823 14.674H158.553C158.92 14.674 159.103 14.8573 159.103 15.224V20.35C159.103 20.7167 158.92 20.9 158.553 20.9H155.143V43.45C155.143 43.8167 154.96 44 154.593 44H148.741ZM146.827 30.25C146.46 30.25 146.277 30.0667 146.277 29.7V25.674C146.277 25.3073 146.46 25.124 146.827 25.124H158.553C158.92 25.124 159.103 25.3073 159.103 25.674V29.7C159.103 30.0667 158.92 30.25 158.553 30.25H146.827ZM169.402 51.326C169.035 51.326 168.852 51.1427 168.852 50.776V47.344C168.852 47.0653 168.962 46.904 169.182 46.86L172.416 46.046L174.682 44.836C174.902 44.7187 175.012 44.4913 175.012 44.154V40.546L172.966 42.46C172.716 42.7093 172.423 42.834 172.086 42.834L168.346 42.966C168.008 42.966 167.715 42.8487 167.466 42.614L163.44 38.566C163.19 38.3313 163.066 38.038 163.066 37.686V20.35C163.066 19.9833 163.249 19.8 163.616 19.8H169.49C169.856 19.8 170.04 19.9833 170.04 20.35V36.916C170.04 37.4 170.128 37.7373 170.304 37.928C170.48 38.1187 170.802 38.214 171.272 38.214H174.066V20.35C174.066 19.9833 174.249 19.8 174.616 19.8H180.49C180.856 19.8 181.04 19.9833 181.04 20.35V46.794C181.04 47.234 180.915 47.5273 180.666 47.674L177.74 49.544L174.022 51.084C173.802 51.172 173.633 51.2307 173.516 51.26C173.413 51.304 173.244 51.326 173.01 51.326H169.402ZM193.583 44C193.216 44 193.033 43.8167 193.033 43.45V23.056C193.033 22.8653 193.106 22.6453 193.253 22.396L198.467 15.004C198.628 14.784 198.863 14.674 199.171 14.674H206.453C206.776 14.674 207.01 14.784 207.157 15.004L212.393 22.396C212.54 22.6013 212.613 22.8213 212.613 23.056V43.45C212.613 43.8167 212.43 44 212.063 44H205.837C205.47 44 205.287 43.8167 205.287 43.45V34.1H200.381V43.45C200.381 43.8167 200.198 44 199.831 44H193.583ZM202.823 29.37C204.172 29.37 205.082 29.0767 205.551 28.49C206.035 27.8887 206.277 26.752 206.277 25.08C206.277 23.408 206.035 22.2787 205.551 21.692C205.082 21.0907 204.172 20.79 202.823 20.79C201.488 20.79 200.579 21.0907 200.095 21.692C199.626 22.2787 199.391 23.408 199.391 25.08C199.391 26.752 199.626 27.8887 200.095 28.49C200.579 29.0767 201.488 29.37 202.823 29.37ZM218.315 44C217.948 44 217.765 43.8167 217.765 43.45V15.224C217.765 14.8573 217.948 14.674 218.315 14.674H224.541C224.908 14.674 225.091 14.8573 225.091 15.224V43.45C225.091 43.8167 224.908 44 224.541 44H218.315Z" fill="url(#paint1_linear_56_884)"/>
<defs>
<linearGradient id="paint0_linear_56_884" x1="11.7865" y1="2" x2="11.7865" y2="21.5518" gradientUnits="userSpaceOnUse">
<stop stop-color="#BA8B02"/>
<stop offset="1" stop-color="#BA8B02" stop-opacity="0.6"/>
</linearGradient>
<linearGradient id="paint1_linear_56_884" x1="18" y1="27.5" x2="250" y2="27.5" gradientUnits="userSpaceOnUse">
<stop stop-color="#BA8B02"/>
<stop offset="1" stop-color="#BA8B02" stop-opacity="0.6"/>
</linearGradient>
</defs>
</svg>
