<svg width="353" height="67" viewBox="0 0 353 67" fill="none" xmlns="http://www.w3.org/2000/svg">
<g opacity="0.3" filter="url(#filter0_f_85_9063)">
<path fill-rule="evenodd" clip-rule="evenodd" d="M96.6772 33.4C96.5787 33.4 96.4912 33.4618 96.4621 33.5516L94.9061 38.3044C94.7714 38.7166 94.4357 39.039 94.0065 39.1683L89.0582 40.6625C88.8471 40.7263 88.8471 41.012 89.0582 41.0766L94.0065 42.5708C94.4357 42.7002 94.7714 43.0226 94.9061 43.4338L96.4621 48.1866C96.5807 48.5496 96.7737 48.5496 96.8923 48.1866C97.4109 46.6027 97.9296 45.0187 98.4482 43.4338C98.5668 43.0708 98.9699 42.6838 99.3478 42.5708L104.297 41.0766C104.508 41.0129 104.508 40.7272 104.297 40.6625L99.3478 39.1683C98.9196 39.039 98.5829 38.7166 98.4482 38.3044L96.8923 33.5516C96.8631 33.4618 96.7757 33.4 96.6772 33.4Z" fill="#BA8B02"/>
</g>
<g opacity="0.4" filter="url(#filter1_f_85_9063)">
<path fill-rule="evenodd" clip-rule="evenodd" d="M9.17717 1.40002C9.07867 1.40002 8.99123 1.4618 8.96208 1.55156L7.40613 6.30444C7.27144 6.7166 6.93572 7.039 6.50653 7.16835L1.55821 8.66255C1.34713 8.72625 1.34713 9.01197 1.55821 9.07664L6.50653 10.5708C6.93572 10.7002 7.27144 11.0226 7.40613 11.4338L8.96208 16.1866C9.08069 16.5496 9.27368 16.5496 9.39228 16.1866C9.91094 14.6027 10.4296 13.0187 10.9482 11.4338C11.0668 11.0708 11.4699 10.6838 11.8478 10.5708L16.7971 9.07664C17.0082 9.01294 17.0082 8.72722 16.7971 8.66255L11.8478 7.16835C11.4196 7.039 11.0829 6.7166 10.9482 6.30444L9.39228 1.55156C9.36314 1.4618 9.27567 1.40002 9.17717 1.40002Z" fill="#BA8B02"/>
</g>
<g opacity="0.5" filter="url(#filter2_f_85_9063)">
<path fill-rule="evenodd" clip-rule="evenodd" d="M273.622 16.3666C273.549 16.3666 273.484 16.4137 273.463 16.4821L272.315 20.1051C272.215 20.4192 271.968 20.665 271.651 20.7636L267.999 21.9026C267.844 21.9511 267.844 22.1689 267.999 22.2182L271.651 23.3572C271.968 23.4558 272.215 23.7016 272.315 24.015L273.463 27.638C273.55 27.9146 273.693 27.9146 273.78 27.638C274.163 26.4306 274.546 25.2231 274.929 24.015C275.016 23.7383 275.314 23.4433 275.592 23.3572L279.245 22.2182C279.4 22.1697 279.4 21.9519 279.245 21.9026L275.592 20.7636C275.276 20.665 275.028 20.4192 274.929 20.1051L273.78 16.4821C273.759 16.4137 273.694 16.3666 273.622 16.3666Z" fill="#BA8B02"/>
</g>
<g opacity="0.7" filter="url(#filter3_f_85_9063)">
<path fill-rule="evenodd" clip-rule="evenodd" d="M345.66 42.7196C345.587 42.7196 345.523 42.7667 345.501 42.8351L344.353 46.4581C344.254 46.7723 344.006 47.018 343.689 47.1166L340.038 48.2556C339.882 48.3042 339.882 48.522 340.038 48.5713L343.689 49.7102C344.006 49.8088 344.254 50.0546 344.353 50.368L345.501 53.991C345.589 54.2676 345.731 54.2676 345.819 53.991C346.201 52.7836 346.584 51.5762 346.967 50.368C347.054 50.0914 347.352 49.7963 347.631 49.7102L351.283 48.5713C351.439 48.5227 351.439 48.3049 351.283 48.2556L347.631 47.1166C347.315 47.018 347.066 46.7723 346.967 46.4581L345.819 42.8351C345.797 42.7667 345.733 42.7196 345.66 42.7196Z" fill="#BA8B02"/>
</g>
<g opacity="0.3" filter="url(#filter4_f_85_9063)">
<path fill-rule="evenodd" clip-rule="evenodd" d="M186.122 53.921C186.049 53.921 185.984 53.9681 185.963 54.0365L184.815 57.6595C184.715 57.9737 184.468 58.2194 184.151 58.318L180.499 59.457C180.344 59.5056 180.344 59.7234 180.499 59.7727L184.151 60.9117C184.468 61.0103 184.715 61.256 184.815 61.5694L185.963 65.1924C186.05 65.4691 186.193 65.4691 186.28 65.1924C186.663 63.985 187.046 62.7776 187.429 61.5694C187.516 61.2928 187.814 60.9977 188.092 60.9117L191.745 59.7727C191.9 59.7241 191.9 59.5063 191.745 59.457L188.092 58.318C187.776 58.2194 187.528 57.9737 187.429 57.6595L186.28 54.0365C186.259 53.9681 186.194 53.921 186.122 53.921Z" fill="#BA8B02"/>
</g>
<defs>
<filter id="filter0_f_85_9063" x="87.4999" y="32" width="18.3557" height="17.8588" filterUnits="userSpaceOnUse" color-interpolation-filters="sRGB">
<feFlood flood-opacity="0" result="BackgroundImageFix"/>
<feBlend mode="normal" in="SourceGraphic" in2="BackgroundImageFix" result="shape"/>
<feGaussianBlur stdDeviation="0.7" result="effect1_foregroundBlur_85_9063"/>
</filter>
<filter id="filter1_f_85_9063" x="-9.76324e-05" y="2.44379e-05" width="18.3557" height="17.8588" filterUnits="userSpaceOnUse" color-interpolation-filters="sRGB">
<feFlood flood-opacity="0" result="BackgroundImageFix"/>
<feBlend mode="normal" in="SourceGraphic" in2="BackgroundImageFix" result="shape"/>
<feGaussianBlur stdDeviation="0.7" result="effect1_foregroundBlur_85_9063"/>
</filter>
<filter id="filter2_f_85_9063" x="266.483" y="14.9666" width="14.2788" height="14.2788" filterUnits="userSpaceOnUse" color-interpolation-filters="sRGB">
<feFlood flood-opacity="0" result="BackgroundImageFix"/>
<feBlend mode="normal" in="SourceGraphic" in2="BackgroundImageFix" result="shape"/>
<feGaussianBlur stdDeviation="0.7" result="effect1_foregroundBlur_85_9063"/>
</filter>
<filter id="filter3_f_85_9063" x="338.521" y="41.3196" width="14.279" height="14.2788" filterUnits="userSpaceOnUse" color-interpolation-filters="sRGB">
<feFlood flood-opacity="0" result="BackgroundImageFix"/>
<feBlend mode="normal" in="SourceGraphic" in2="BackgroundImageFix" result="shape"/>
<feGaussianBlur stdDeviation="0.7" result="effect1_foregroundBlur_85_9063"/>
</filter>
<filter id="filter4_f_85_9063" x="178.983" y="52.521" width="14.2788" height="14.2788" filterUnits="userSpaceOnUse" color-interpolation-filters="sRGB">
<feFlood flood-opacity="0" result="BackgroundImageFix"/>
<feBlend mode="normal" in="SourceGraphic" in2="BackgroundImageFix" result="shape"/>
<feGaussianBlur stdDeviation="0.7" result="effect1_foregroundBlur_85_9063"/>
</filter>
</defs>
</svg>
