<svg width="276" height="75" viewBox="0 0 276 75" fill="none" xmlns="http://www.w3.org/2000/svg">
<path fill-rule="evenodd" clip-rule="evenodd" d="M17.0763 2C17.0449 2 17.0166 2.02017 17.0077 2.05084L16.5082 3.63893C16.4655 3.77611 16.3573 3.88425 16.2202 3.92702L14.6321 4.42652C14.5643 4.4475 14.5643 4.54353 14.6321 4.56451L16.2202 5.06402C16.3573 5.10759 16.4655 5.21492 16.5082 5.35291L17.0077 6.941C17.0457 7.06205 17.1078 7.06205 17.1458 6.941C17.312 6.41164 17.4782 5.88227 17.6453 5.35291C17.6832 5.23187 17.8123 5.10194 17.9341 5.06402L19.5222 4.56451C19.59 4.54353 19.59 4.4475 19.5222 4.42652L17.9341 3.92702C17.7961 3.88425 17.6888 3.77611 17.6453 3.63893L17.1458 2.05084C17.1361 2.02017 17.1078 2 17.0763 2ZM7.29117 4.87519C7.24921 4.87519 7.2129 4.90263 7.19999 4.94217L6.54151 7.03622C6.48421 7.21779 6.34219 7.35981 6.16063 7.41711L4.06657 8.07558C3.97781 8.10383 3.97781 8.22971 4.06657 8.25715L6.16063 8.91563C6.34219 8.97292 6.48421 9.11414 6.54151 9.2957L7.19999 11.3898C7.25002 11.5495 7.33152 11.5495 7.38236 11.3898C7.60185 10.6917 7.82135 9.99372 8.04084 9.2957C8.09087 9.13593 8.26114 8.96566 8.42092 8.91563L10.515 8.25715C10.6045 8.22971 10.6045 8.10302 10.515 8.07558L8.42092 7.41711C8.23935 7.35981 8.09733 7.21779 8.04084 7.03622L7.38236 4.94217C7.36945 4.90263 7.33314 4.87519 7.29117 4.87519ZM12.7519 8.96244C12.6728 8.96244 12.6026 9.01408 12.5792 9.08912L11.33 13.0626C11.2219 13.4072 10.9524 13.6767 10.6078 13.7848L6.63512 15.034C6.46566 15.0872 6.46566 15.3261 6.63512 15.3802L10.6078 16.6293C10.9524 16.7375 11.2219 17.007 11.33 17.3508L12.5792 21.3242C12.6744 21.6276 12.8293 21.6276 12.9246 21.3242C13.3409 20 13.7573 18.6758 14.1737 17.3508C14.2689 17.0473 14.5925 16.7238 14.8959 16.6293L18.8694 15.3802C19.0389 15.3269 19.0389 15.0881 18.8694 15.034L14.8959 13.7848C14.5522 13.6767 14.2819 13.4072 14.1737 13.0626L12.9246 9.08912C12.9012 9.01408 12.8309 8.96244 12.7519 8.96244Z" fill="url(#paint0_linear_56_883)"/>
<path d="M26.294 44C25.942 44 25.6487 43.8753 25.414 43.626L21.014 39.226C20.7647 38.9913 20.64 38.698 20.64 38.346V15.224C20.64 14.8573 20.8233 14.674 21.19 14.674H27.416C27.7827 14.674 27.966 14.8573 27.966 15.224V38.104H32.894V15.224C32.894 14.8573 33.0773 14.674 33.444 14.674H39.67C40.0367 14.674 40.22 14.8573 40.22 15.224V38.104H45.126V15.224C45.126 14.8573 45.3093 14.674 45.676 14.674H51.924C52.2907 14.674 52.474 14.8573 52.474 15.224V38.346C52.474 38.698 52.3493 38.9913 52.1 39.226L47.7 43.626C47.4507 43.8753 47.1573 44 46.82 44H41.65C41.3127 44 41.0193 43.8753 40.77 43.626L37.074 39.93H36.04L32.344 43.626C32.0947 43.8753 31.8013 44 31.464 44H26.294ZM63.265 44C62.9277 44 62.6343 43.8753 62.385 43.626L57.985 39.226C57.7357 38.9913 57.611 38.698 57.611 38.346V25.454C57.611 25.102 57.7357 24.8087 57.985 24.574L62.385 20.174C62.6343 19.9247 62.9277 19.8 63.265 19.8H75.035C75.4017 19.8 75.585 19.9833 75.585 20.35V43.45C75.585 43.8167 75.4017 44 75.035 44H70.459C70.2683 44 70.1217 43.9633 70.019 43.89C69.931 43.8167 69.8283 43.7287 69.711 43.626L68.611 42.526L67.511 43.626C67.2763 43.8753 66.983 44 66.631 44H63.265ZM65.839 38.874H67.379C67.8483 38.874 68.171 38.7787 68.347 38.588C68.523 38.3973 68.611 38.06 68.611 37.576V24.926H65.839C65.355 24.926 65.025 25.0213 64.849 25.212C64.673 25.4027 64.585 25.74 64.585 26.224V37.576C64.585 38.06 64.673 38.3973 64.849 38.588C65.025 38.7787 65.355 38.874 65.839 38.874ZM80.9963 44C80.6296 44 80.4463 43.8167 80.4463 43.45V15.224C80.4463 14.8573 80.6296 14.674 80.9963 14.674H86.8703C87.237 14.674 87.4203 14.8573 87.4203 15.224V43.45C87.4203 43.8167 87.237 44 86.8703 44H80.9963ZM92.5549 44C92.1882 44 92.0049 43.8167 92.0049 43.45V15.224C92.0049 14.8573 92.1882 14.674 92.5549 14.674H98.4289C98.7956 14.674 98.9789 14.8573 98.9789 15.224V43.45C98.9789 43.8167 98.7956 44 98.4289 44H92.5549ZM104.378 50.6C104.011 50.6 103.828 50.4167 103.828 50.05V20.35C103.828 19.9833 104.011 19.8 104.378 19.8H108.932C109.196 19.8 109.452 19.9247 109.702 20.174L110.802 21.274L111.902 20.174C112.136 19.9247 112.43 19.8 112.782 19.8H116.148C116.485 19.8 116.778 19.9247 117.028 20.174L121.428 24.574C121.677 24.8087 121.802 25.102 121.802 25.454V38.346C121.802 38.698 121.677 38.9913 121.428 39.226L117.028 43.626C116.778 43.8753 116.485 44 116.148 44H112.782C112.43 44 112.136 43.8753 111.902 43.626L110.802 42.526V50.05C110.802 50.4167 110.618 50.6 110.252 50.6H104.378ZM110.802 38.874H113.574C114.058 38.874 114.388 38.7787 114.564 38.588C114.74 38.3973 114.828 38.06 114.828 37.576V26.224C114.828 25.74 114.74 25.4027 114.564 25.212C114.388 25.0213 114.058 24.926 113.574 24.926H112.034C111.564 24.926 111.242 25.0213 111.066 25.212C110.89 25.4027 110.802 25.74 110.802 26.224V38.874ZM132.445 44C132.107 44 131.814 43.8753 131.565 43.626L127.165 39.226C126.915 38.9913 126.791 38.698 126.791 38.346V25.454C126.791 25.102 126.915 24.8087 127.165 24.574L131.565 20.174C131.814 19.9247 132.107 19.8 132.445 19.8H144.215C144.581 19.8 144.765 19.9833 144.765 20.35V43.45C144.765 43.8167 144.581 44 144.215 44H139.639C139.448 44 139.301 43.9633 139.199 43.89C139.111 43.8167 139.008 43.7287 138.891 43.626L137.791 42.526L136.691 43.626C136.456 43.8753 136.163 44 135.811 44H132.445ZM135.019 38.874H136.559C137.028 38.874 137.351 38.7787 137.527 38.588C137.703 38.3973 137.791 38.06 137.791 37.576V24.926H135.019C134.535 24.926 134.205 25.0213 134.029 25.212C133.853 25.4027 133.765 25.74 133.765 26.224V37.576C133.765 38.06 133.853 38.3973 134.029 38.588C134.205 38.7787 134.535 38.874 135.019 38.874ZM150.44 50.6C150.073 50.6 149.89 50.4167 149.89 50.05V20.35C149.89 19.9833 150.073 19.8 150.44 19.8H154.994C155.258 19.8 155.515 19.9247 155.764 20.174L156.864 21.274L157.964 20.174C158.199 19.9247 158.492 19.8 158.844 19.8H162.21C162.547 19.8 162.841 19.9247 163.09 20.174L167.49 24.574C167.739 24.8087 167.864 25.102 167.864 25.454V38.346C167.864 38.698 167.739 38.9913 167.49 39.226L163.09 43.626C162.841 43.8753 162.547 44 162.21 44H158.844C158.492 44 158.199 43.8753 157.964 43.626L156.864 42.526V50.05C156.864 50.4167 156.681 50.6 156.314 50.6H150.44ZM156.864 38.874H159.636C160.12 38.874 160.45 38.7787 160.626 38.588C160.802 38.3973 160.89 38.06 160.89 37.576V26.224C160.89 25.74 160.802 25.4027 160.626 25.212C160.45 25.0213 160.12 24.926 159.636 24.926H158.096C157.627 24.926 157.304 25.0213 157.128 25.212C156.952 25.4027 156.864 25.74 156.864 26.224V38.874ZM182.863 44C182.717 44 182.555 43.978 182.379 43.934C182.218 43.89 182.064 43.8533 181.917 43.824L178.001 42.856L173.513 41.36C173.073 41.2133 172.853 40.788 172.853 40.084V25.454C172.853 25.102 172.978 24.8087 173.227 24.574L177.627 20.174C177.877 19.9247 178.17 19.8 178.507 19.8H185.547C185.885 19.8 186.178 19.9247 186.427 20.174L190.827 24.574C191.077 24.8087 191.201 25.102 191.201 25.454V34.474H179.387L179.233 37.4L182.357 38.434L187.967 38.83C188.217 38.874 188.341 39.0427 188.341 39.336V43.45C188.341 43.8167 188.158 44 187.791 44H182.863ZM181.983 31.02H182.401C183.12 31.02 183.692 30.7487 184.117 30.206C184.557 29.6633 184.777 28.93 184.777 28.006V27.566C184.777 26.6567 184.557 25.9307 184.117 25.388C183.692 24.8453 183.12 24.574 182.401 24.574H181.961C181.257 24.574 180.693 24.8453 180.267 25.388C179.857 25.9307 179.651 26.6567 179.651 27.566V28.006C179.651 28.93 179.857 29.6633 180.267 30.206C180.693 30.7487 181.265 31.02 181.983 31.02ZM196.331 44C195.964 44 195.781 43.8167 195.781 43.45V20.35C195.781 19.9833 195.964 19.8 196.331 19.8H199.675C199.953 19.8 200.195 19.9247 200.401 20.174L202.557 22.66L204.955 20.064C205.116 19.888 205.321 19.8 205.571 19.8H207.947C208.313 19.8 208.497 19.9833 208.497 20.35V25.08C208.497 25.3147 208.482 25.476 208.453 25.564C208.423 25.6373 208.343 25.718 208.211 25.806L202.755 29.832V43.45C202.755 43.8167 202.571 44 202.205 44H196.331ZM218.674 44C218.308 44 218.124 43.8167 218.124 43.45V15.224C218.124 14.8573 218.308 14.674 218.674 14.674H230.84C231.192 14.674 231.486 14.7913 231.72 15.026L236.12 19.426C236.37 19.6753 236.494 19.9687 236.494 20.306V27.896C236.494 28.248 236.37 28.5413 236.12 28.776L231.72 33.176C231.486 33.4253 231.192 33.55 230.84 33.55H225.45V43.45C225.45 43.8167 225.267 44 224.9 44H218.674ZM227.1 27.566C228.318 27.566 229.146 27.324 229.586 26.84C230.041 26.356 230.268 25.4393 230.268 24.09C230.268 22.7407 230.041 21.824 229.586 21.34C229.146 20.856 228.318 20.614 227.1 20.614C225.898 20.614 225.069 20.856 224.614 21.34C224.174 21.824 223.954 22.7407 223.954 24.09C223.954 25.4393 224.174 26.356 224.614 26.84C225.069 27.324 225.898 27.566 227.1 27.566ZM240.588 44C240.222 44 240.038 43.8167 240.038 43.45V20.35C240.038 19.9833 240.222 19.8 240.588 19.8H243.932C244.211 19.8 244.453 19.9247 244.658 20.174L246.814 22.66L249.212 20.064C249.374 19.888 249.579 19.8 249.828 19.8H252.204C252.571 19.8 252.754 19.9833 252.754 20.35V25.08C252.754 25.3147 252.74 25.476 252.71 25.564C252.681 25.6373 252.6 25.718 252.468 25.806L247.012 29.832V43.45C247.012 43.8167 246.829 44 246.462 44H240.588ZM260.878 44C260.541 44 260.248 43.8753 259.998 43.626L255.598 39.226C255.349 38.9913 255.224 38.698 255.224 38.346V25.454C255.224 25.102 255.349 24.8087 255.598 24.574L259.998 20.174C260.248 19.9247 260.541 19.8 260.878 19.8H267.544C267.896 19.8 268.19 19.9247 268.424 20.174L272.824 24.574C273.074 24.8087 273.198 25.102 273.198 25.454V38.346C273.198 38.698 273.074 38.9913 272.824 39.226L268.424 43.626C268.19 43.8753 267.896 44 267.544 44H260.878ZM263.452 38.874H264.992C265.462 38.874 265.784 38.7787 265.96 38.588C266.136 38.3973 266.224 38.06 266.224 37.576V26.224C266.224 25.74 266.136 25.4027 265.96 25.212C265.784 25.0213 265.462 24.926 264.992 24.926H263.452C262.968 24.926 262.638 25.0213 262.462 25.212C262.286 25.4027 262.198 25.74 262.198 26.224V37.576C262.198 38.06 262.286 38.3973 262.462 38.588C262.638 38.7787 262.968 38.874 263.452 38.874Z" fill="url(#paint1_linear_56_883)"/>
<path d="M18.356 71L23.348 59.8H25.908L30.916 71H28.196L24.1 61.112H25.124L21.012 71H18.356ZM20.852 68.6L21.54 66.632H27.3L28.004 68.6H20.852ZM31.902 71V62.392H34.398V71H31.902ZM33.15 61.192C32.6913 61.192 32.318 61.0587 32.03 60.792C31.742 60.5253 31.598 60.1947 31.598 59.8C31.598 59.4053 31.742 59.0747 32.03 58.808C32.318 58.5413 32.6913 58.408 33.15 58.408C33.6087 58.408 33.982 58.536 34.27 58.792C34.558 59.0373 34.702 59.3573 34.702 59.752C34.702 60.168 34.558 60.5147 34.27 60.792C33.9927 61.0587 33.6193 61.192 33.15 61.192ZM44.1098 71L40.4458 59.8H43.1338L46.3178 69.72H44.9738L48.3018 59.8H50.7018L53.9018 69.72H52.6058L55.8698 59.8H58.3498L54.6858 71H51.9018L49.0698 62.296H49.8058L46.8938 71H44.1098ZM57.9497 71L62.9418 59.8H65.5018L70.5098 71H67.7898L63.6938 61.112H64.7178L60.6058 71H57.9497ZM60.4457 68.6L61.1338 66.632H66.8938L67.5978 68.6H60.4457ZM71.6718 71V59.8H74.2638V68.888H79.8798V71H71.6718ZM81.328 71V59.8H83.92V68.888H89.536V71H81.328ZM90.9843 71V59.8H95.8323C96.8349 59.8 97.6989 59.9653 98.4243 60.296C99.1496 60.616 99.7096 61.08 100.104 61.688C100.499 62.296 100.696 63.0213 100.696 63.864C100.696 64.696 100.499 65.416 100.104 66.024C99.7096 66.632 99.1496 67.1013 98.4243 67.432C97.6989 67.752 96.8349 67.912 95.8323 67.912H92.4243L93.5763 66.744V71H90.9843ZM93.5763 67.032L92.4243 65.8H95.6883C96.4883 65.8 97.0856 65.6293 97.4803 65.288C97.8749 64.9467 98.0723 64.472 98.0723 63.864C98.0723 63.2453 97.8749 62.7653 97.4803 62.424C97.0856 62.0827 96.4883 61.912 95.6883 61.912H92.4243L93.5763 60.68V67.032ZM100.512 71L105.504 59.8H108.064L113.072 71H110.352L106.256 61.112H107.28L103.168 71H100.512ZM103.008 68.6L103.696 66.632H109.456L110.16 68.6H103.008ZM114.234 71V59.8H119.082C120.085 59.8 120.949 59.9653 121.674 60.296C122.4 60.616 122.96 61.08 123.354 61.688C123.749 62.296 123.946 63.0213 123.946 63.864C123.946 64.696 123.749 65.416 123.354 66.024C122.96 66.632 122.4 67.1013 121.674 67.432C120.949 67.752 120.085 67.912 119.082 67.912H115.674L116.826 66.744V71H114.234ZM116.826 67.032L115.674 65.8H118.938C119.738 65.8 120.336 65.6293 120.73 65.288C121.125 64.9467 121.322 64.472 121.322 63.864C121.322 63.2453 121.125 62.7653 120.73 62.424C120.336 62.0827 119.738 61.912 118.938 61.912H115.674L116.826 60.68V67.032ZM128.181 64.312H133.573V66.328H128.181V64.312ZM128.373 68.92H134.469V71H125.797V59.8H134.261V61.88H128.373V68.92ZM136.531 71V59.8H141.379C142.382 59.8 143.246 59.9653 143.971 60.296C144.696 60.616 145.256 61.08 145.651 61.688C146.046 62.296 146.243 63.0213 146.243 63.864C146.243 64.696 146.046 65.416 145.651 66.024C145.256 66.6213 144.696 67.08 143.971 67.4C143.246 67.72 142.382 67.88 141.379 67.88H137.971L139.123 66.744V71H136.531ZM143.651 71L140.851 66.936H143.619L146.451 71H143.651ZM139.123 67.032L137.971 65.816H141.235C142.035 65.816 142.632 65.6453 143.027 65.304C143.422 64.952 143.619 64.472 143.619 63.864C143.619 63.2453 143.422 62.7653 143.027 62.424C142.632 62.0827 142.035 61.912 141.235 61.912H137.971L139.123 60.68V67.032ZM158.236 71.192C157.351 71.192 156.535 71.0533 155.788 70.776C155.052 70.488 154.407 70.0827 153.852 69.56C153.308 69.0373 152.881 68.424 152.572 67.72C152.273 67.016 152.124 66.2427 152.124 65.4C152.124 64.5573 152.273 63.784 152.572 63.08C152.881 62.376 153.313 61.7627 153.868 61.24C154.423 60.7173 155.073 60.3173 155.82 60.04C156.567 59.752 157.388 59.608 158.284 59.608C159.276 59.608 160.167 59.7733 160.956 60.104C161.756 60.4347 162.428 60.9147 162.972 61.544L161.308 63.08C160.903 62.6533 160.46 62.3387 159.98 62.136C159.5 61.9227 158.977 61.816 158.412 61.816C157.868 61.816 157.372 61.9013 156.924 62.072C156.476 62.2427 156.087 62.488 155.756 62.808C155.436 63.128 155.185 63.5067 155.004 63.944C154.833 64.3813 154.748 64.8667 154.748 65.4C154.748 65.9227 154.833 66.4027 155.004 66.84C155.185 67.2773 155.436 67.6613 155.756 67.992C156.087 68.312 156.471 68.5573 156.908 68.728C157.356 68.8987 157.847 68.984 158.38 68.984C158.892 68.984 159.388 68.904 159.868 68.744C160.359 68.5733 160.833 68.2907 161.292 67.896L162.764 69.768C162.156 70.2267 161.447 70.5787 160.636 70.824C159.836 71.0693 159.036 71.192 158.236 71.192ZM160.396 69.432V65.224H162.764V69.768L160.396 69.432ZM167.556 64.312H172.948V66.328H167.556V64.312ZM167.748 68.92H173.844V71H165.172V59.8H173.636V61.88H167.748V68.92ZM175.906 71V59.8H178.05L184.658 67.864H183.618V59.8H186.178V71H184.05L177.426 62.936H178.466V71H175.906ZM191.212 64.312H196.604V66.328H191.212V64.312ZM191.404 68.92H197.5V71H188.828V59.8H197.292V61.88H191.404V68.92ZM199.562 71V59.8H204.41C205.413 59.8 206.277 59.9653 207.002 60.296C207.728 60.616 208.288 61.08 208.682 61.688C209.077 62.296 209.274 63.0213 209.274 63.864C209.274 64.696 209.077 65.416 208.682 66.024C208.288 66.6213 207.728 67.08 207.002 67.4C206.277 67.72 205.413 67.88 204.41 67.88H201.002L202.154 66.744V71H199.562ZM206.682 71L203.882 66.936H206.65L209.482 71H206.682ZM202.154 67.032L201.002 65.816H204.266C205.066 65.816 205.664 65.6453 206.058 65.304C206.453 64.952 206.65 64.472 206.65 63.864C206.65 63.2453 206.453 62.7653 206.058 62.424C205.664 62.0827 205.066 61.912 204.266 61.912H201.002L202.154 60.68V67.032ZM209.856 71L214.848 59.8H217.408L222.416 71H219.696L215.6 61.112H216.624L212.512 71H209.856ZM212.352 68.6L213.04 66.632H218.8L219.504 68.6H212.352ZM225.336 71V61.912H221.752V59.8H231.512V61.912H227.928V71H225.336ZM238.19 71.192C237.305 71.192 236.483 71.048 235.726 70.76C234.979 70.472 234.329 70.0667 233.774 69.544C233.23 69.0213 232.803 68.408 232.494 67.704C232.195 67 232.046 66.232 232.046 65.4C232.046 64.568 232.195 63.8 232.494 63.096C232.803 62.392 233.235 61.7787 233.79 61.256C234.345 60.7333 234.995 60.328 235.742 60.04C236.489 59.752 237.299 59.608 238.174 59.608C239.059 59.608 239.87 59.752 240.606 60.04C241.353 60.328 241.998 60.7333 242.542 61.256C243.097 61.7787 243.529 62.392 243.838 63.096C244.147 63.7893 244.302 64.5573 244.302 65.4C244.302 66.232 244.147 67.0053 243.838 67.72C243.529 68.424 243.097 69.0373 242.542 69.56C241.998 70.072 241.353 70.472 240.606 70.76C239.87 71.048 239.065 71.192 238.19 71.192ZM238.174 68.984C238.675 68.984 239.134 68.8987 239.55 68.728C239.977 68.5573 240.35 68.312 240.67 67.992C240.99 67.672 241.235 67.2933 241.406 66.856C241.587 66.4187 241.678 65.9333 241.678 65.4C241.678 64.8667 241.587 64.3813 241.406 63.944C241.235 63.5067 240.99 63.128 240.67 62.808C240.361 62.488 239.993 62.2427 239.566 62.072C239.139 61.9013 238.675 61.816 238.174 61.816C237.673 61.816 237.209 61.9013 236.782 62.072C236.366 62.2427 235.998 62.488 235.678 62.808C235.358 63.128 235.107 63.5067 234.926 63.944C234.755 64.3813 234.67 64.8667 234.67 65.4C234.67 65.9227 234.755 66.408 234.926 66.856C235.107 67.2933 235.353 67.672 235.662 67.992C235.982 68.312 236.355 68.5573 236.782 68.728C237.209 68.8987 237.673 68.984 238.174 68.984ZM246.25 71V59.8H251.098C252.101 59.8 252.965 59.9653 253.69 60.296C254.415 60.616 254.975 61.08 255.37 61.688C255.765 62.296 255.962 63.0213 255.962 63.864C255.962 64.696 255.765 65.416 255.37 66.024C254.975 66.6213 254.415 67.08 253.69 67.4C252.965 67.72 252.101 67.88 251.098 67.88H247.69L248.842 66.744V71H246.25ZM253.37 71L250.57 66.936H253.338L256.17 71H253.37ZM248.842 67.032L247.69 65.816H250.954C251.754 65.816 252.351 65.6453 252.746 65.304C253.141 64.952 253.338 64.472 253.338 63.864C253.338 63.2453 253.141 62.7653 252.746 62.424C252.351 62.0827 251.754 61.912 250.954 61.912H247.69L248.842 60.68V67.032Z" fill="url(#paint2_linear_56_883)"/>
<defs>
<linearGradient id="paint0_linear_56_883" x1="11.7865" y1="2" x2="11.7865" y2="21.5518" gradientUnits="userSpaceOnUse">
<stop stop-color="#BA8B02"/>
<stop offset="1" stop-color="#BA8B02" stop-opacity="0.6"/>
</linearGradient>
<linearGradient id="paint1_linear_56_883" x1="18" y1="27.5" x2="276" y2="27.5" gradientUnits="userSpaceOnUse">
<stop stop-color="#BA8B02"/>
<stop offset="1" stop-color="#BA8B02" stop-opacity="0.6"/>
</linearGradient>
<linearGradient id="paint2_linear_56_883" x1="18.5" y1="65" x2="257.5" y2="65" gradientUnits="userSpaceOnUse">
<stop stop-color="#BA8B02"/>
<stop offset="1" stop-color="#BA8B02" stop-opacity="0.6"/>
</linearGradient>
</defs>
</svg>
