<svg width="32" height="32" viewBox="0 0 32 32" fill="none" xmlns="http://www.w3.org/2000/svg">
<path fill-rule="evenodd" clip-rule="evenodd" d="M22.7686 2.66675C22.7267 2.66675 22.689 2.69365 22.6772 2.73453L22.0112 4.85199C21.9541 5.0349 21.8099 5.17908 21.627 5.2361L19.5096 5.90211C19.4192 5.93009 19.4192 6.05813 19.5096 6.0861L21.627 6.7521C21.8099 6.8102 21.9541 6.95331 22.0112 7.13729L22.6772 9.25475C22.7277 9.41614 22.8106 9.41614 22.8612 9.25475C23.0828 8.54893 23.3044 7.84311 23.5272 7.13729C23.5777 6.9759 23.7499 6.80267 23.9123 6.7521L26.0298 6.0861C26.1202 6.05813 26.1202 5.93009 26.0298 5.90211L23.9123 5.2361C23.7284 5.17908 23.5853 5.0349 23.5272 4.85199L22.8612 2.73453C22.8483 2.69365 22.8106 2.66675 22.7686 2.66675ZM9.72173 6.50034C9.66578 6.50034 9.61736 6.53692 9.60015 6.58964L8.72217 9.38171C8.64578 9.6238 8.45642 9.81317 8.21433 9.88956L5.42226 10.7675C5.30391 10.8052 5.30391 10.973 5.42226 11.0096L8.21433 11.8876C8.45642 11.964 8.64578 12.1523 8.72217 12.3944L9.60015 15.1864C9.66686 15.3995 9.77553 15.3995 9.84331 15.1864C10.136 14.2557 10.4286 13.325 10.7213 12.3944C10.788 12.1813 11.015 11.9543 11.2281 11.8876L14.0201 11.0096C14.1395 10.973 14.1395 10.8041 14.0201 10.7675L11.2281 9.88956C10.986 9.81317 10.7966 9.6238 10.7213 9.38171L9.84331 6.58964C9.8261 6.53692 9.77768 6.50034 9.72173 6.50034ZM17.0026 11.95C16.8972 11.95 16.8036 12.0188 16.7724 12.1189L15.1068 17.4169C14.9627 17.8763 14.6033 18.2357 14.1439 18.3798L8.84699 20.0454C8.62104 20.1164 8.62104 20.4349 8.84699 20.507L14.1439 22.1725C14.6033 22.3167 14.9627 22.6761 15.1068 23.1344L16.7724 28.4324C16.8994 28.8369 17.1059 28.8369 17.2329 28.4324C17.7881 26.6667 18.3433 24.9011 18.8985 23.1344C19.0254 22.7299 19.4569 22.2984 19.8614 22.1725L25.1594 20.507C25.3853 20.436 25.3853 20.1175 25.1594 20.0454L19.8614 18.3798C19.4031 18.2357 19.0426 17.8763 18.8985 17.4169L17.2329 12.1189C17.2017 12.0188 17.1081 11.95 17.0026 11.95Z" fill="white"/>
</svg>
